<mxfile host="app.diagrams.net" modified="2023-09-28T18:59:50.902Z" agent="Mozilla/5.0 (X11; Linux x86_64; rv:109.0) Gecko/20100101 Firefox/114.0" etag="-SAyD8vAYta_i5kMiFlB" version="21.8.2" type="github">
  <diagram name="PÃ¡gina-1" id="vOhGdilDTs-STNVr9IPA">
    <mxGraphModel dx="644" dy="795" grid="1" gridSize="10" guides="1" tooltips="1" connect="1" arrows="1" fold="1" page="1" pageScale="1" pageWidth="827" pageHeight="1169" math="0" shadow="0">
      <root>
        <mxCell id="0" />
        <mxCell id="1" parent="0" />
        <mxCell id="OY-Vd0WlKixnU0CxxPwk-6" style="edgeStyle=orthogonalEdgeStyle;rounded=0;orthogonalLoop=1;jettySize=auto;html=1;endArrow=none;endFill=0;" edge="1" parent="1" source="OY-Vd0WlKixnU0CxxPwk-1" target="OY-Vd0WlKixnU0CxxPwk-4">
          <mxGeometry relative="1" as="geometry" />
        </mxCell>
        <mxCell id="OY-Vd0WlKixnU0CxxPwk-1" value="Profesor" style="rounded=0;whiteSpace=wrap;html=1;" vertex="1" parent="1">
          <mxGeometry x="294" y="150" width="120" height="60" as="geometry" />
        </mxCell>
        <mxCell id="OY-Vd0WlKixnU0CxxPwk-12" style="edgeStyle=orthogonalEdgeStyle;rounded=0;orthogonalLoop=1;jettySize=auto;html=1;entryX=1;entryY=0.5;entryDx=0;entryDy=0;endArrow=none;endFill=0;" edge="1" parent="1" source="OY-Vd0WlKixnU0CxxPwk-2" target="OY-Vd0WlKixnU0CxxPwk-11">
          <mxGeometry relative="1" as="geometry" />
        </mxCell>
        <mxCell id="OY-Vd0WlKixnU0CxxPwk-2" value="Alumno" style="rounded=0;whiteSpace=wrap;html=1;" vertex="1" parent="1">
          <mxGeometry x="294" y="590" width="120" height="60" as="geometry" />
        </mxCell>
        <mxCell id="OY-Vd0WlKixnU0CxxPwk-8" style="edgeStyle=orthogonalEdgeStyle;rounded=0;orthogonalLoop=1;jettySize=auto;html=1;endArrow=none;endFill=0;" edge="1" parent="1" source="OY-Vd0WlKixnU0CxxPwk-3" target="OY-Vd0WlKixnU0CxxPwk-5">
          <mxGeometry relative="1" as="geometry" />
        </mxCell>
        <mxCell id="OY-Vd0WlKixnU0CxxPwk-3" value="Modulo" style="rounded=0;whiteSpace=wrap;html=1;" vertex="1" parent="1">
          <mxGeometry x="294" y="370" width="120" height="60" as="geometry" />
        </mxCell>
        <mxCell id="OY-Vd0WlKixnU0CxxPwk-7" style="edgeStyle=orthogonalEdgeStyle;rounded=0;orthogonalLoop=1;jettySize=auto;html=1;entryX=0.5;entryY=0;entryDx=0;entryDy=0;endArrow=none;endFill=0;" edge="1" parent="1" source="OY-Vd0WlKixnU0CxxPwk-4" target="OY-Vd0WlKixnU0CxxPwk-3">
          <mxGeometry relative="1" as="geometry" />
        </mxCell>
        <mxCell id="OY-Vd0WlKixnU0CxxPwk-4" value="impartir" style="rhombus;whiteSpace=wrap;html=1;" vertex="1" parent="1">
          <mxGeometry x="314" y="250" width="80" height="80" as="geometry" />
        </mxCell>
        <mxCell id="OY-Vd0WlKixnU0CxxPwk-9" style="edgeStyle=orthogonalEdgeStyle;rounded=0;orthogonalLoop=1;jettySize=auto;html=1;endArrow=none;endFill=0;" edge="1" parent="1" source="OY-Vd0WlKixnU0CxxPwk-5" target="OY-Vd0WlKixnU0CxxPwk-2">
          <mxGeometry relative="1" as="geometry" />
        </mxCell>
        <mxCell id="OY-Vd0WlKixnU0CxxPwk-5" value="matricularse" style="rhombus;whiteSpace=wrap;html=1;" vertex="1" parent="1">
          <mxGeometry x="314" y="470" width="80" height="80" as="geometry" />
        </mxCell>
        <mxCell id="OY-Vd0WlKixnU0CxxPwk-13" style="edgeStyle=orthogonalEdgeStyle;rounded=0;orthogonalLoop=1;jettySize=auto;html=1;entryX=0;entryY=0.5;entryDx=0;entryDy=0;endArrow=none;endFill=0;" edge="1" parent="1" source="OY-Vd0WlKixnU0CxxPwk-11" target="OY-Vd0WlKixnU0CxxPwk-2">
          <mxGeometry relative="1" as="geometry" />
        </mxCell>
        <mxCell id="OY-Vd0WlKixnU0CxxPwk-11" value="es delegado" style="rhombus;whiteSpace=wrap;html=1;" vertex="1" parent="1">
          <mxGeometry x="214" y="670" width="80" height="80" as="geometry" />
        </mxCell>
        <mxCell id="OY-Vd0WlKixnU0CxxPwk-15" value="DNI" style="ellipse;whiteSpace=wrap;html=1;align=center;fontStyle=4;" vertex="1" parent="1">
          <mxGeometry x="460" y="180" width="100" height="40" as="geometry" />
        </mxCell>
        <mxCell id="OY-Vd0WlKixnU0CxxPwk-16" value="Nombre" style="ellipse;whiteSpace=wrap;html=1;" vertex="1" parent="1">
          <mxGeometry x="460" y="135" width="100" height="40" as="geometry" />
        </mxCell>
        <mxCell id="OY-Vd0WlKixnU0CxxPwk-28" style="edgeStyle=orthogonalEdgeStyle;rounded=0;orthogonalLoop=1;jettySize=auto;html=1;entryX=1;entryY=0;entryDx=0;entryDy=0;endArrow=none;endFill=0;" edge="1" parent="1" source="OY-Vd0WlKixnU0CxxPwk-17" target="OY-Vd0WlKixnU0CxxPwk-1">
          <mxGeometry relative="1" as="geometry" />
        </mxCell>
        <mxCell id="OY-Vd0WlKixnU0CxxPwk-17" value="Direccion" style="ellipse;whiteSpace=wrap;html=1;" vertex="1" parent="1">
          <mxGeometry x="460" y="90" width="100" height="40" as="geometry" />
        </mxCell>
        <mxCell id="OY-Vd0WlKixnU0CxxPwk-18" value="Telefono" style="ellipse;whiteSpace=wrap;html=1;" vertex="1" parent="1">
          <mxGeometry x="460" y="45" width="100" height="40" as="geometry" />
        </mxCell>
        <mxCell id="OY-Vd0WlKixnU0CxxPwk-30" style="edgeStyle=orthogonalEdgeStyle;rounded=0;orthogonalLoop=1;jettySize=auto;html=1;entryX=1;entryY=0.25;entryDx=0;entryDy=0;endArrow=none;endFill=0;" edge="1" parent="1" source="OY-Vd0WlKixnU0CxxPwk-19" target="OY-Vd0WlKixnU0CxxPwk-3">
          <mxGeometry relative="1" as="geometry" />
        </mxCell>
        <mxCell id="OY-Vd0WlKixnU0CxxPwk-19" value="Codigo" style="ellipse;whiteSpace=wrap;html=1;align=center;fontStyle=4;" vertex="1" parent="1">
          <mxGeometry x="460" y="355" width="100" height="40" as="geometry" />
        </mxCell>
        <mxCell id="OY-Vd0WlKixnU0CxxPwk-31" style="edgeStyle=orthogonalEdgeStyle;rounded=0;orthogonalLoop=1;jettySize=auto;html=1;entryX=1;entryY=0.5;entryDx=0;entryDy=0;endArrow=none;endFill=0;" edge="1" parent="1" source="OY-Vd0WlKixnU0CxxPwk-20" target="OY-Vd0WlKixnU0CxxPwk-3">
          <mxGeometry relative="1" as="geometry" />
        </mxCell>
        <mxCell id="OY-Vd0WlKixnU0CxxPwk-20" value="Nombre" style="ellipse;whiteSpace=wrap;html=1;" vertex="1" parent="1">
          <mxGeometry x="460" y="405" width="100" height="40" as="geometry" />
        </mxCell>
        <mxCell id="OY-Vd0WlKixnU0CxxPwk-32" style="edgeStyle=orthogonalEdgeStyle;rounded=0;orthogonalLoop=1;jettySize=auto;html=1;entryX=1;entryY=0.25;entryDx=0;entryDy=0;endArrow=none;endFill=0;" edge="1" parent="1" source="OY-Vd0WlKixnU0CxxPwk-21" target="OY-Vd0WlKixnU0CxxPwk-2">
          <mxGeometry relative="1" as="geometry" />
        </mxCell>
        <mxCell id="OY-Vd0WlKixnU0CxxPwk-21" value="n&lt;sup&gt;o&lt;/sup&gt;" style="ellipse;whiteSpace=wrap;html=1;align=center;fontStyle=4;" vertex="1" parent="1">
          <mxGeometry x="460" y="550" width="100" height="40" as="geometry" />
        </mxCell>
        <mxCell id="OY-Vd0WlKixnU0CxxPwk-33" style="edgeStyle=orthogonalEdgeStyle;rounded=0;orthogonalLoop=1;jettySize=auto;html=1;entryX=1;entryY=0.5;entryDx=0;entryDy=0;endArrow=none;endFill=0;" edge="1" parent="1" source="OY-Vd0WlKixnU0CxxPwk-22" target="OY-Vd0WlKixnU0CxxPwk-2">
          <mxGeometry relative="1" as="geometry" />
        </mxCell>
        <mxCell id="OY-Vd0WlKixnU0CxxPwk-22" value="Nombre" style="ellipse;whiteSpace=wrap;html=1;" vertex="1" parent="1">
          <mxGeometry x="460" y="596" width="100" height="40" as="geometry" />
        </mxCell>
        <mxCell id="OY-Vd0WlKixnU0CxxPwk-34" style="edgeStyle=orthogonalEdgeStyle;rounded=0;orthogonalLoop=1;jettySize=auto;html=1;entryX=1;entryY=0.75;entryDx=0;entryDy=0;endArrow=none;endFill=0;" edge="1" parent="1" source="OY-Vd0WlKixnU0CxxPwk-23" target="OY-Vd0WlKixnU0CxxPwk-2">
          <mxGeometry relative="1" as="geometry" />
        </mxCell>
        <mxCell id="OY-Vd0WlKixnU0CxxPwk-23" value="Apellido" style="ellipse;whiteSpace=wrap;html=1;" vertex="1" parent="1">
          <mxGeometry x="460" y="643" width="100" height="40" as="geometry" />
        </mxCell>
        <mxCell id="OY-Vd0WlKixnU0CxxPwk-35" style="edgeStyle=orthogonalEdgeStyle;rounded=0;orthogonalLoop=1;jettySize=auto;html=1;entryX=1;entryY=1;entryDx=0;entryDy=0;endArrow=none;endFill=0;" edge="1" parent="1" source="OY-Vd0WlKixnU0CxxPwk-24" target="OY-Vd0WlKixnU0CxxPwk-2">
          <mxGeometry relative="1" as="geometry" />
        </mxCell>
        <mxCell id="OY-Vd0WlKixnU0CxxPwk-24" value="Fecha de nacimiento" style="ellipse;whiteSpace=wrap;html=1;" vertex="1" parent="1">
          <mxGeometry x="460" y="688" width="100" height="40" as="geometry" />
        </mxCell>
        <mxCell id="OY-Vd0WlKixnU0CxxPwk-26" style="edgeStyle=orthogonalEdgeStyle;rounded=0;orthogonalLoop=1;jettySize=auto;html=1;entryX=0.988;entryY=0.85;entryDx=0;entryDy=0;entryPerimeter=0;endArrow=none;endFill=0;" edge="1" parent="1" source="OY-Vd0WlKixnU0CxxPwk-15" target="OY-Vd0WlKixnU0CxxPwk-1">
          <mxGeometry relative="1" as="geometry" />
        </mxCell>
        <mxCell id="OY-Vd0WlKixnU0CxxPwk-27" style="edgeStyle=orthogonalEdgeStyle;rounded=0;orthogonalLoop=1;jettySize=auto;html=1;entryX=0.996;entryY=0.612;entryDx=0;entryDy=0;entryPerimeter=0;endArrow=none;endFill=0;" edge="1" parent="1" source="OY-Vd0WlKixnU0CxxPwk-16" target="OY-Vd0WlKixnU0CxxPwk-1">
          <mxGeometry relative="1" as="geometry" />
        </mxCell>
        <mxCell id="OY-Vd0WlKixnU0CxxPwk-29" style="edgeStyle=orthogonalEdgeStyle;rounded=0;orthogonalLoop=1;jettySize=auto;html=1;entryX=0.873;entryY=0.025;entryDx=0;entryDy=0;entryPerimeter=0;endArrow=none;endFill=0;" edge="1" parent="1" source="OY-Vd0WlKixnU0CxxPwk-18" target="OY-Vd0WlKixnU0CxxPwk-1">
          <mxGeometry relative="1" as="geometry" />
        </mxCell>
        <mxCell id="OY-Vd0WlKixnU0CxxPwk-36" value="1:1" style="text;html=1;strokeColor=none;fillColor=none;align=center;verticalAlign=middle;whiteSpace=wrap;rounded=0;" vertex="1" parent="1">
          <mxGeometry x="294" y="210" width="60" height="30" as="geometry" />
        </mxCell>
        <mxCell id="OY-Vd0WlKixnU0CxxPwk-37" value="1:N" style="text;html=1;strokeColor=none;fillColor=none;align=center;verticalAlign=middle;whiteSpace=wrap;rounded=0;" vertex="1" parent="1">
          <mxGeometry x="294" y="340" width="60" height="30" as="geometry" />
        </mxCell>
        <mxCell id="OY-Vd0WlKixnU0CxxPwk-38" value="1:N" style="text;html=1;strokeColor=none;fillColor=none;align=center;verticalAlign=middle;whiteSpace=wrap;rounded=0;" vertex="1" parent="1">
          <mxGeometry x="254" y="275" width="60" height="30" as="geometry" />
        </mxCell>
        <mxCell id="OY-Vd0WlKixnU0CxxPwk-39" value="1:N" style="text;html=1;strokeColor=none;fillColor=none;align=center;verticalAlign=middle;whiteSpace=wrap;rounded=0;" vertex="1" parent="1">
          <mxGeometry x="294" y="430" width="60" height="30" as="geometry" />
        </mxCell>
        <mxCell id="OY-Vd0WlKixnU0CxxPwk-40" value="1:N" style="text;html=1;strokeColor=none;fillColor=none;align=center;verticalAlign=middle;whiteSpace=wrap;rounded=0;" vertex="1" parent="1">
          <mxGeometry x="294" y="560" width="60" height="30" as="geometry" />
        </mxCell>
        <mxCell id="OY-Vd0WlKixnU0CxxPwk-41" value="N:N" style="text;html=1;strokeColor=none;fillColor=none;align=center;verticalAlign=middle;whiteSpace=wrap;rounded=0;" vertex="1" parent="1">
          <mxGeometry x="254" y="494" width="60" height="30" as="geometry" />
        </mxCell>
        <mxCell id="OY-Vd0WlKixnU0CxxPwk-42" value="1:1" style="text;html=1;strokeColor=none;fillColor=none;align=center;verticalAlign=middle;whiteSpace=wrap;rounded=0;" vertex="1" parent="1">
          <mxGeometry x="234" y="590" width="60" height="30" as="geometry" />
        </mxCell>
        <mxCell id="OY-Vd0WlKixnU0CxxPwk-43" value="0:1" style="text;html=1;strokeColor=none;fillColor=none;align=center;verticalAlign=middle;whiteSpace=wrap;rounded=0;" vertex="1" parent="1">
          <mxGeometry x="294" y="680" width="60" height="30" as="geometry" />
        </mxCell>
        <mxCell id="OY-Vd0WlKixnU0CxxPwk-44" value="0:1" style="text;html=1;strokeColor=none;fillColor=none;align=center;verticalAlign=middle;whiteSpace=wrap;rounded=0;" vertex="1" parent="1">
          <mxGeometry x="160" y="695" width="60" height="30" as="geometry" />
        </mxCell>
      </root>
    </mxGraphModel>
  </diagram>
</mxfile>
